<?xml version="1.0" encoding="utf-8" standalone="no"?>
<!DOCTYPE svg PUBLIC "-//W3C//DTD SVG 1.1//EN"
  "http://www.w3.org/Graphics/SVG/1.1/DTD/svg11.dtd">
<svg height="432pt" version="1.1" viewBox="0 0 691.2 432" width="691.2pt" xmlns="http://www.w3.org/2000/svg" xmlns:xlink="http://www.w3.org/1999/xlink">
 <metadata>
  <rdf:RDF xmlns:cc="http://creativecommons.org/ns#" xmlns:dc="http://purl.org/dc/elements/1.1/" xmlns:rdf="http://www.w3.org/1999/02/22-rdf-syntax-ns#">
   <cc:Work>
    <dc:type rdf:resource="http://purl.org/dc/dcmitype/StillImage"/>
    <dc:date>2021-12-06T12:12:25.352713</dc:date>
    <dc:format>image/svg+xml</dc:format>
    <dc:creator>
     <cc:Agent>
      <dc:title>Matplotlib v3.4.3, https://matplotlib.org/</dc:title>
     </cc:Agent>
    </dc:creator>
   </cc:Work>
  </rdf:RDF>
 </metadata>
 <defs>
  <style type="text/css">*{stroke-linecap:butt;stroke-linejoin:round;}</style>
 </defs>
 <g id="figure_1">
  <g id="patch_1">
   <path d="M 0 432 
L 691.2 432 
L 691.2 0 
L 0 0 
z
" style="fill:#ffffff;"/>
  </g>
  <g id="axes_1">
   <g id="patch_2">
    <path d="M 76.52 390.04 
L 608.26 390.04 
L 608.26 10.8 
L 76.52 10.8 
z
" style="fill:#ffffff;"/>
   </g>
   <g id="PathCollection_1"/>
   <g id="PathCollection_2"/>
   <g id="matplotlib.axis_1">
    <g id="xtick_1">
     <g id="line2d_1">
      <path clip-path="url(#p99b28be57e)" d="M 76.52 390.04 
L 76.52 10.8 
" style="fill:none;stroke:#b0b0b0;stroke-linecap:square;stroke-width:0.8;"/>
     </g>
     <g id="line2d_2">
      <defs>
       <path d="M 0 0 
L 0 3.5 
" id="m55fee6b93b" style="stroke:#000000;stroke-width:0.8;"/>
      </defs>
      <g>
       <use style="stroke:#000000;stroke-width:0.8;" x="76.52" xlink:href="#m55fee6b93b" y="390.04"/>
      </g>
     </g>
     <g id="text_1">
      <!-- 0 -->
      <g transform="translate(73.33875 404.638438)scale(0.1 -0.1)">
       <defs>
        <path d="M 2034 4250 
Q 1547 4250 1301 3770 
Q 1056 3291 1056 2328 
Q 1056 1369 1301 889 
Q 1547 409 2034 409 
Q 2525 409 2770 889 
Q 3016 1369 3016 2328 
Q 3016 3291 2770 3770 
Q 2525 4250 2034 4250 
z
M 2034 4750 
Q 2819 4750 3233 4129 
Q 3647 3509 3647 2328 
Q 3647 1150 3233 529 
Q 2819 -91 2034 -91 
Q 1250 -91 836 529 
Q 422 1150 422 2328 
Q 422 3509 836 4129 
Q 1250 4750 2034 4750 
z
" id="DejaVuSans-30" transform="scale(0.015625)"/>
       </defs>
       <use xlink:href="#DejaVuSans-30"/>
      </g>
     </g>
    </g>
    <g id="xtick_2">
     <g id="line2d_3">
      <path clip-path="url(#p99b28be57e)" d="M 142.9875 390.04 
L 142.9875 10.8 
" style="fill:none;stroke:#b0b0b0;stroke-linecap:square;stroke-width:0.8;"/>
     </g>
     <g id="line2d_4">
      <g>
       <use style="stroke:#000000;stroke-width:0.8;" x="142.9875" xlink:href="#m55fee6b93b" y="390.04"/>
      </g>
     </g>
     <g id="text_2">
      <!-- 500 -->
      <g transform="translate(133.44375 404.638438)scale(0.1 -0.1)">
       <defs>
        <path d="M 691 4666 
L 3169 4666 
L 3169 4134 
L 1269 4134 
L 1269 2991 
Q 1406 3038 1543 3061 
Q 1681 3084 1819 3084 
Q 2600 3084 3056 2656 
Q 3513 2228 3513 1497 
Q 3513 744 3044 326 
Q 2575 -91 1722 -91 
Q 1428 -91 1123 -41 
Q 819 9 494 109 
L 494 744 
Q 775 591 1075 516 
Q 1375 441 1709 441 
Q 2250 441 2565 725 
Q 2881 1009 2881 1497 
Q 2881 1984 2565 2268 
Q 2250 2553 1709 2553 
Q 1456 2553 1204 2497 
Q 953 2441 691 2322 
L 691 4666 
z
" id="DejaVuSans-35" transform="scale(0.015625)"/>
       </defs>
       <use xlink:href="#DejaVuSans-35"/>
       <use x="63.623047" xlink:href="#DejaVuSans-30"/>
       <use x="127.246094" xlink:href="#DejaVuSans-30"/>
      </g>
     </g>
    </g>
    <g id="xtick_3">
     <g id="line2d_5">
      <path clip-path="url(#p99b28be57e)" d="M 209.455 390.04 
L 209.455 10.8 
" style="fill:none;stroke:#b0b0b0;stroke-linecap:square;stroke-width:0.8;"/>
     </g>
     <g id="line2d_6">
      <g>
       <use style="stroke:#000000;stroke-width:0.8;" x="209.455" xlink:href="#m55fee6b93b" y="390.04"/>
      </g>
     </g>
     <g id="text_3">
      <!-- 1000 -->
      <g transform="translate(196.73 404.638438)scale(0.1 -0.1)">
       <defs>
        <path d="M 794 531 
L 1825 531 
L 1825 4091 
L 703 3866 
L 703 4441 
L 1819 4666 
L 2450 4666 
L 2450 531 
L 3481 531 
L 3481 0 
L 794 0 
L 794 531 
z
" id="DejaVuSans-31" transform="scale(0.015625)"/>
       </defs>
       <use xlink:href="#DejaVuSans-31"/>
       <use x="63.623047" xlink:href="#DejaVuSans-30"/>
       <use x="127.246094" xlink:href="#DejaVuSans-30"/>
       <use x="190.869141" xlink:href="#DejaVuSans-30"/>
      </g>
     </g>
    </g>
    <g id="xtick_4">
     <g id="line2d_7">
      <path clip-path="url(#p99b28be57e)" d="M 275.9225 390.04 
L 275.9225 10.8 
" style="fill:none;stroke:#b0b0b0;stroke-linecap:square;stroke-width:0.8;"/>
     </g>
     <g id="line2d_8">
      <g>
       <use style="stroke:#000000;stroke-width:0.8;" x="275.9225" xlink:href="#m55fee6b93b" y="390.04"/>
      </g>
     </g>
     <g id="text_4">
      <!-- 1500 -->
      <g transform="translate(263.1975 404.638438)scale(0.1 -0.1)">
       <use xlink:href="#DejaVuSans-31"/>
       <use x="63.623047" xlink:href="#DejaVuSans-35"/>
       <use x="127.246094" xlink:href="#DejaVuSans-30"/>
       <use x="190.869141" xlink:href="#DejaVuSans-30"/>
      </g>
     </g>
    </g>
    <g id="xtick_5">
     <g id="line2d_9">
      <path clip-path="url(#p99b28be57e)" d="M 342.39 390.04 
L 342.39 10.8 
" style="fill:none;stroke:#b0b0b0;stroke-linecap:square;stroke-width:0.8;"/>
     </g>
     <g id="line2d_10">
      <g>
       <use style="stroke:#000000;stroke-width:0.8;" x="342.39" xlink:href="#m55fee6b93b" y="390.04"/>
      </g>
     </g>
     <g id="text_5">
      <!-- 2000 -->
      <g transform="translate(329.665 404.638438)scale(0.1 -0.1)">
       <defs>
        <path d="M 1228 531 
L 3431 531 
L 3431 0 
L 469 0 
L 469 531 
Q 828 903 1448 1529 
Q 2069 2156 2228 2338 
Q 2531 2678 2651 2914 
Q 2772 3150 2772 3378 
Q 2772 3750 2511 3984 
Q 2250 4219 1831 4219 
Q 1534 4219 1204 4116 
Q 875 4013 500 3803 
L 500 4441 
Q 881 4594 1212 4672 
Q 1544 4750 1819 4750 
Q 2544 4750 2975 4387 
Q 3406 4025 3406 3419 
Q 3406 3131 3298 2873 
Q 3191 2616 2906 2266 
Q 2828 2175 2409 1742 
Q 1991 1309 1228 531 
z
" id="DejaVuSans-32" transform="scale(0.015625)"/>
       </defs>
       <use xlink:href="#DejaVuSans-32"/>
       <use x="63.623047" xlink:href="#DejaVuSans-30"/>
       <use x="127.246094" xlink:href="#DejaVuSans-30"/>
       <use x="190.869141" xlink:href="#DejaVuSans-30"/>
      </g>
     </g>
    </g>
    <g id="xtick_6">
     <g id="line2d_11">
      <path clip-path="url(#p99b28be57e)" d="M 408.8575 390.04 
L 408.8575 10.8 
" style="fill:none;stroke:#b0b0b0;stroke-linecap:square;stroke-width:0.8;"/>
     </g>
     <g id="line2d_12">
      <g>
       <use style="stroke:#000000;stroke-width:0.8;" x="408.8575" xlink:href="#m55fee6b93b" y="390.04"/>
      </g>
     </g>
     <g id="text_6">
      <!-- 2500 -->
      <g transform="translate(396.1325 404.638438)scale(0.1 -0.1)">
       <use xlink:href="#DejaVuSans-32"/>
       <use x="63.623047" xlink:href="#DejaVuSans-35"/>
       <use x="127.246094" xlink:href="#DejaVuSans-30"/>
       <use x="190.869141" xlink:href="#DejaVuSans-30"/>
      </g>
     </g>
    </g>
    <g id="xtick_7">
     <g id="line2d_13">
      <path clip-path="url(#p99b28be57e)" d="M 475.325 390.04 
L 475.325 10.8 
" style="fill:none;stroke:#b0b0b0;stroke-linecap:square;stroke-width:0.8;"/>
     </g>
     <g id="line2d_14">
      <g>
       <use style="stroke:#000000;stroke-width:0.8;" x="475.325" xlink:href="#m55fee6b93b" y="390.04"/>
      </g>
     </g>
     <g id="text_7">
      <!-- 3000 -->
      <g transform="translate(462.6 404.638438)scale(0.1 -0.1)">
       <defs>
        <path d="M 2597 2516 
Q 3050 2419 3304 2112 
Q 3559 1806 3559 1356 
Q 3559 666 3084 287 
Q 2609 -91 1734 -91 
Q 1441 -91 1130 -33 
Q 819 25 488 141 
L 488 750 
Q 750 597 1062 519 
Q 1375 441 1716 441 
Q 2309 441 2620 675 
Q 2931 909 2931 1356 
Q 2931 1769 2642 2001 
Q 2353 2234 1838 2234 
L 1294 2234 
L 1294 2753 
L 1863 2753 
Q 2328 2753 2575 2939 
Q 2822 3125 2822 3475 
Q 2822 3834 2567 4026 
Q 2313 4219 1838 4219 
Q 1578 4219 1281 4162 
Q 984 4106 628 3988 
L 628 4550 
Q 988 4650 1302 4700 
Q 1616 4750 1894 4750 
Q 2613 4750 3031 4423 
Q 3450 4097 3450 3541 
Q 3450 3153 3228 2886 
Q 3006 2619 2597 2516 
z
" id="DejaVuSans-33" transform="scale(0.015625)"/>
       </defs>
       <use xlink:href="#DejaVuSans-33"/>
       <use x="63.623047" xlink:href="#DejaVuSans-30"/>
       <use x="127.246094" xlink:href="#DejaVuSans-30"/>
       <use x="190.869141" xlink:href="#DejaVuSans-30"/>
      </g>
     </g>
    </g>
    <g id="xtick_8">
     <g id="line2d_15">
      <path clip-path="url(#p99b28be57e)" d="M 541.7925 390.04 
L 541.7925 10.8 
" style="fill:none;stroke:#b0b0b0;stroke-linecap:square;stroke-width:0.8;"/>
     </g>
     <g id="line2d_16">
      <g>
       <use style="stroke:#000000;stroke-width:0.8;" x="541.7925" xlink:href="#m55fee6b93b" y="390.04"/>
      </g>
     </g>
     <g id="text_8">
      <!-- 3500 -->
      <g transform="translate(529.0675 404.638438)scale(0.1 -0.1)">
       <use xlink:href="#DejaVuSans-33"/>
       <use x="63.623047" xlink:href="#DejaVuSans-35"/>
       <use x="127.246094" xlink:href="#DejaVuSans-30"/>
       <use x="190.869141" xlink:href="#DejaVuSans-30"/>
      </g>
     </g>
    </g>
    <g id="xtick_9">
     <g id="line2d_17">
      <path clip-path="url(#p99b28be57e)" d="M 608.26 390.04 
L 608.26 10.8 
" style="fill:none;stroke:#b0b0b0;stroke-linecap:square;stroke-width:0.8;"/>
     </g>
     <g id="line2d_18">
      <g>
       <use style="stroke:#000000;stroke-width:0.8;" x="608.26" xlink:href="#m55fee6b93b" y="390.04"/>
      </g>
     </g>
     <g id="text_9">
      <!-- 4000 -->
      <g transform="translate(595.535 404.638438)scale(0.1 -0.1)">
       <defs>
        <path d="M 2419 4116 
L 825 1625 
L 2419 1625 
L 2419 4116 
z
M 2253 4666 
L 3047 4666 
L 3047 1625 
L 3713 1625 
L 3713 1100 
L 3047 1100 
L 3047 0 
L 2419 0 
L 2419 1100 
L 313 1100 
L 313 1709 
L 2253 4666 
z
" id="DejaVuSans-34" transform="scale(0.015625)"/>
       </defs>
       <use xlink:href="#DejaVuSans-34"/>
       <use x="63.623047" xlink:href="#DejaVuSans-30"/>
       <use x="127.246094" xlink:href="#DejaVuSans-30"/>
       <use x="190.869141" xlink:href="#DejaVuSans-30"/>
      </g>
     </g>
    </g>
    <g id="text_10">
     <!-- Average Load (Millicores) -->
     <g transform="translate(279.478281 418.316562)scale(0.1 -0.1)">
      <defs>
       <path d="M 2188 4044 
L 1331 1722 
L 3047 1722 
L 2188 4044 
z
M 1831 4666 
L 2547 4666 
L 4325 0 
L 3669 0 
L 3244 1197 
L 1141 1197 
L 716 0 
L 50 0 
L 1831 4666 
z
" id="DejaVuSans-41" transform="scale(0.015625)"/>
       <path d="M 191 3500 
L 800 3500 
L 1894 563 
L 2988 3500 
L 3597 3500 
L 2284 0 
L 1503 0 
L 191 3500 
z
" id="DejaVuSans-76" transform="scale(0.015625)"/>
       <path d="M 3597 1894 
L 3597 1613 
L 953 1613 
Q 991 1019 1311 708 
Q 1631 397 2203 397 
Q 2534 397 2845 478 
Q 3156 559 3463 722 
L 3463 178 
Q 3153 47 2828 -22 
Q 2503 -91 2169 -91 
Q 1331 -91 842 396 
Q 353 884 353 1716 
Q 353 2575 817 3079 
Q 1281 3584 2069 3584 
Q 2775 3584 3186 3129 
Q 3597 2675 3597 1894 
z
M 3022 2063 
Q 3016 2534 2758 2815 
Q 2500 3097 2075 3097 
Q 1594 3097 1305 2825 
Q 1016 2553 972 2059 
L 3022 2063 
z
" id="DejaVuSans-65" transform="scale(0.015625)"/>
       <path d="M 2631 2963 
Q 2534 3019 2420 3045 
Q 2306 3072 2169 3072 
Q 1681 3072 1420 2755 
Q 1159 2438 1159 1844 
L 1159 0 
L 581 0 
L 581 3500 
L 1159 3500 
L 1159 2956 
Q 1341 3275 1631 3429 
Q 1922 3584 2338 3584 
Q 2397 3584 2469 3576 
Q 2541 3569 2628 3553 
L 2631 2963 
z
" id="DejaVuSans-72" transform="scale(0.015625)"/>
       <path d="M 2194 1759 
Q 1497 1759 1228 1600 
Q 959 1441 959 1056 
Q 959 750 1161 570 
Q 1363 391 1709 391 
Q 2188 391 2477 730 
Q 2766 1069 2766 1631 
L 2766 1759 
L 2194 1759 
z
M 3341 1997 
L 3341 0 
L 2766 0 
L 2766 531 
Q 2569 213 2275 61 
Q 1981 -91 1556 -91 
Q 1019 -91 701 211 
Q 384 513 384 1019 
Q 384 1609 779 1909 
Q 1175 2209 1959 2209 
L 2766 2209 
L 2766 2266 
Q 2766 2663 2505 2880 
Q 2244 3097 1772 3097 
Q 1472 3097 1187 3025 
Q 903 2953 641 2809 
L 641 3341 
Q 956 3463 1253 3523 
Q 1550 3584 1831 3584 
Q 2591 3584 2966 3190 
Q 3341 2797 3341 1997 
z
" id="DejaVuSans-61" transform="scale(0.015625)"/>
       <path d="M 2906 1791 
Q 2906 2416 2648 2759 
Q 2391 3103 1925 3103 
Q 1463 3103 1205 2759 
Q 947 2416 947 1791 
Q 947 1169 1205 825 
Q 1463 481 1925 481 
Q 2391 481 2648 825 
Q 2906 1169 2906 1791 
z
M 3481 434 
Q 3481 -459 3084 -895 
Q 2688 -1331 1869 -1331 
Q 1566 -1331 1297 -1286 
Q 1028 -1241 775 -1147 
L 775 -588 
Q 1028 -725 1275 -790 
Q 1522 -856 1778 -856 
Q 2344 -856 2625 -561 
Q 2906 -266 2906 331 
L 2906 616 
Q 2728 306 2450 153 
Q 2172 0 1784 0 
Q 1141 0 747 490 
Q 353 981 353 1791 
Q 353 2603 747 3093 
Q 1141 3584 1784 3584 
Q 2172 3584 2450 3431 
Q 2728 3278 2906 2969 
L 2906 3500 
L 3481 3500 
L 3481 434 
z
" id="DejaVuSans-67" transform="scale(0.015625)"/>
       <path id="DejaVuSans-20" transform="scale(0.015625)"/>
       <path d="M 628 4666 
L 1259 4666 
L 1259 531 
L 3531 531 
L 3531 0 
L 628 0 
L 628 4666 
z
" id="DejaVuSans-4c" transform="scale(0.015625)"/>
       <path d="M 1959 3097 
Q 1497 3097 1228 2736 
Q 959 2375 959 1747 
Q 959 1119 1226 758 
Q 1494 397 1959 397 
Q 2419 397 2687 759 
Q 2956 1122 2956 1747 
Q 2956 2369 2687 2733 
Q 2419 3097 1959 3097 
z
M 1959 3584 
Q 2709 3584 3137 3096 
Q 3566 2609 3566 1747 
Q 3566 888 3137 398 
Q 2709 -91 1959 -91 
Q 1206 -91 779 398 
Q 353 888 353 1747 
Q 353 2609 779 3096 
Q 1206 3584 1959 3584 
z
" id="DejaVuSans-6f" transform="scale(0.015625)"/>
       <path d="M 2906 2969 
L 2906 4863 
L 3481 4863 
L 3481 0 
L 2906 0 
L 2906 525 
Q 2725 213 2448 61 
Q 2172 -91 1784 -91 
Q 1150 -91 751 415 
Q 353 922 353 1747 
Q 353 2572 751 3078 
Q 1150 3584 1784 3584 
Q 2172 3584 2448 3432 
Q 2725 3281 2906 2969 
z
M 947 1747 
Q 947 1113 1208 752 
Q 1469 391 1925 391 
Q 2381 391 2643 752 
Q 2906 1113 2906 1747 
Q 2906 2381 2643 2742 
Q 2381 3103 1925 3103 
Q 1469 3103 1208 2742 
Q 947 2381 947 1747 
z
" id="DejaVuSans-64" transform="scale(0.015625)"/>
       <path d="M 1984 4856 
Q 1566 4138 1362 3434 
Q 1159 2731 1159 2009 
Q 1159 1288 1364 580 
Q 1569 -128 1984 -844 
L 1484 -844 
Q 1016 -109 783 600 
Q 550 1309 550 2009 
Q 550 2706 781 3412 
Q 1013 4119 1484 4856 
L 1984 4856 
z
" id="DejaVuSans-28" transform="scale(0.015625)"/>
       <path d="M 628 4666 
L 1569 4666 
L 2759 1491 
L 3956 4666 
L 4897 4666 
L 4897 0 
L 4281 0 
L 4281 4097 
L 3078 897 
L 2444 897 
L 1241 4097 
L 1241 0 
L 628 0 
L 628 4666 
z
" id="DejaVuSans-4d" transform="scale(0.015625)"/>
       <path d="M 603 3500 
L 1178 3500 
L 1178 0 
L 603 0 
L 603 3500 
z
M 603 4863 
L 1178 4863 
L 1178 4134 
L 603 4134 
L 603 4863 
z
" id="DejaVuSans-69" transform="scale(0.015625)"/>
       <path d="M 603 4863 
L 1178 4863 
L 1178 0 
L 603 0 
L 603 4863 
z
" id="DejaVuSans-6c" transform="scale(0.015625)"/>
       <path d="M 3122 3366 
L 3122 2828 
Q 2878 2963 2633 3030 
Q 2388 3097 2138 3097 
Q 1578 3097 1268 2742 
Q 959 2388 959 1747 
Q 959 1106 1268 751 
Q 1578 397 2138 397 
Q 2388 397 2633 464 
Q 2878 531 3122 666 
L 3122 134 
Q 2881 22 2623 -34 
Q 2366 -91 2075 -91 
Q 1284 -91 818 406 
Q 353 903 353 1747 
Q 353 2603 823 3093 
Q 1294 3584 2113 3584 
Q 2378 3584 2631 3529 
Q 2884 3475 3122 3366 
z
" id="DejaVuSans-63" transform="scale(0.015625)"/>
       <path d="M 2834 3397 
L 2834 2853 
Q 2591 2978 2328 3040 
Q 2066 3103 1784 3103 
Q 1356 3103 1142 2972 
Q 928 2841 928 2578 
Q 928 2378 1081 2264 
Q 1234 2150 1697 2047 
L 1894 2003 
Q 2506 1872 2764 1633 
Q 3022 1394 3022 966 
Q 3022 478 2636 193 
Q 2250 -91 1575 -91 
Q 1294 -91 989 -36 
Q 684 19 347 128 
L 347 722 
Q 666 556 975 473 
Q 1284 391 1588 391 
Q 1994 391 2212 530 
Q 2431 669 2431 922 
Q 2431 1156 2273 1281 
Q 2116 1406 1581 1522 
L 1381 1569 
Q 847 1681 609 1914 
Q 372 2147 372 2553 
Q 372 3047 722 3315 
Q 1072 3584 1716 3584 
Q 2034 3584 2315 3537 
Q 2597 3491 2834 3397 
z
" id="DejaVuSans-73" transform="scale(0.015625)"/>
       <path d="M 513 4856 
L 1013 4856 
Q 1481 4119 1714 3412 
Q 1947 2706 1947 2009 
Q 1947 1309 1714 600 
Q 1481 -109 1013 -844 
L 513 -844 
Q 928 -128 1133 580 
Q 1338 1288 1338 2009 
Q 1338 2731 1133 3434 
Q 928 4138 513 4856 
z
" id="DejaVuSans-29" transform="scale(0.015625)"/>
      </defs>
      <use xlink:href="#DejaVuSans-41"/>
      <use x="62.533203" xlink:href="#DejaVuSans-76"/>
      <use x="121.712891" xlink:href="#DejaVuSans-65"/>
      <use x="183.236328" xlink:href="#DejaVuSans-72"/>
      <use x="224.349609" xlink:href="#DejaVuSans-61"/>
      <use x="285.628906" xlink:href="#DejaVuSans-67"/>
      <use x="349.105469" xlink:href="#DejaVuSans-65"/>
      <use x="410.628906" xlink:href="#DejaVuSans-20"/>
      <use x="442.416016" xlink:href="#DejaVuSans-4c"/>
      <use x="496.378906" xlink:href="#DejaVuSans-6f"/>
      <use x="557.560547" xlink:href="#DejaVuSans-61"/>
      <use x="618.839844" xlink:href="#DejaVuSans-64"/>
      <use x="682.316406" xlink:href="#DejaVuSans-20"/>
      <use x="714.103516" xlink:href="#DejaVuSans-28"/>
      <use x="753.117188" xlink:href="#DejaVuSans-4d"/>
      <use x="839.396484" xlink:href="#DejaVuSans-69"/>
      <use x="867.179688" xlink:href="#DejaVuSans-6c"/>
      <use x="894.962891" xlink:href="#DejaVuSans-6c"/>
      <use x="922.746094" xlink:href="#DejaVuSans-69"/>
      <use x="950.529297" xlink:href="#DejaVuSans-63"/>
      <use x="1005.509766" xlink:href="#DejaVuSans-6f"/>
      <use x="1066.691406" xlink:href="#DejaVuSans-72"/>
      <use x="1105.554688" xlink:href="#DejaVuSans-65"/>
      <use x="1167.078125" xlink:href="#DejaVuSans-73"/>
      <use x="1219.177734" xlink:href="#DejaVuSans-29"/>
     </g>
    </g>
   </g>
   <g id="matplotlib.axis_2">
    <g id="ytick_1">
     <g id="line2d_19">
      <defs>
       <path d="M 0 0 
L -3.5 0 
" id="ma0725ede3d" style="stroke:#000000;stroke-width:0.8;"/>
      </defs>
      <g>
       <use style="stroke:#000000;stroke-width:0.8;" x="76.52" xlink:href="#ma0725ede3d" y="58.205"/>
      </g>
     </g>
     <g id="text_11">
      <!-- Worker-1 -->
      <g transform="translate(24.965312 62.004219)scale(0.1 -0.1)">
       <defs>
        <path d="M 213 4666 
L 850 4666 
L 1831 722 
L 2809 4666 
L 3519 4666 
L 4500 722 
L 5478 4666 
L 6119 4666 
L 4947 0 
L 4153 0 
L 3169 4050 
L 2175 0 
L 1381 0 
L 213 4666 
z
" id="DejaVuSans-57" transform="scale(0.015625)"/>
        <path d="M 581 4863 
L 1159 4863 
L 1159 1991 
L 2875 3500 
L 3609 3500 
L 1753 1863 
L 3688 0 
L 2938 0 
L 1159 1709 
L 1159 0 
L 581 0 
L 581 4863 
z
" id="DejaVuSans-6b" transform="scale(0.015625)"/>
        <path d="M 313 2009 
L 1997 2009 
L 1997 1497 
L 313 1497 
L 313 2009 
z
" id="DejaVuSans-2d" transform="scale(0.015625)"/>
       </defs>
       <use xlink:href="#DejaVuSans-57"/>
       <use x="93.001953" xlink:href="#DejaVuSans-6f"/>
       <use x="154.183594" xlink:href="#DejaVuSans-72"/>
       <use x="195.296875" xlink:href="#DejaVuSans-6b"/>
       <use x="249.582031" xlink:href="#DejaVuSans-65"/>
       <use x="311.105469" xlink:href="#DejaVuSans-72"/>
       <use x="345.84375" xlink:href="#DejaVuSans-2d"/>
       <use x="381.927734" xlink:href="#DejaVuSans-31"/>
      </g>
     </g>
    </g>
    <g id="ytick_2">
     <g id="line2d_20">
      <g>
       <use style="stroke:#000000;stroke-width:0.8;" x="76.52" xlink:href="#ma0725ede3d" y="153.015"/>
      </g>
     </g>
     <g id="text_12">
      <!-- Worker-2 -->
      <g transform="translate(24.965312 156.814219)scale(0.1 -0.1)">
       <use xlink:href="#DejaVuSans-57"/>
       <use x="93.001953" xlink:href="#DejaVuSans-6f"/>
       <use x="154.183594" xlink:href="#DejaVuSans-72"/>
       <use x="195.296875" xlink:href="#DejaVuSans-6b"/>
       <use x="249.582031" xlink:href="#DejaVuSans-65"/>
       <use x="311.105469" xlink:href="#DejaVuSans-72"/>
       <use x="345.84375" xlink:href="#DejaVuSans-2d"/>
       <use x="381.927734" xlink:href="#DejaVuSans-32"/>
      </g>
     </g>
    </g>
    <g id="ytick_3">
     <g id="line2d_21">
      <g>
       <use style="stroke:#000000;stroke-width:0.8;" x="76.52" xlink:href="#ma0725ede3d" y="247.825"/>
      </g>
     </g>
     <g id="text_13">
      <!-- Worker-3 -->
      <g transform="translate(24.965312 251.624219)scale(0.1 -0.1)">
       <use xlink:href="#DejaVuSans-57"/>
       <use x="93.001953" xlink:href="#DejaVuSans-6f"/>
       <use x="154.183594" xlink:href="#DejaVuSans-72"/>
       <use x="195.296875" xlink:href="#DejaVuSans-6b"/>
       <use x="249.582031" xlink:href="#DejaVuSans-65"/>
       <use x="311.105469" xlink:href="#DejaVuSans-72"/>
       <use x="345.84375" xlink:href="#DejaVuSans-2d"/>
       <use x="381.927734" xlink:href="#DejaVuSans-33"/>
      </g>
     </g>
    </g>
    <g id="ytick_4">
     <g id="line2d_22">
      <g>
       <use style="stroke:#000000;stroke-width:0.8;" x="76.52" xlink:href="#ma0725ede3d" y="342.635"/>
      </g>
     </g>
     <g id="text_14">
      <!-- Worker-4 -->
      <g transform="translate(24.965312 346.434219)scale(0.1 -0.1)">
       <use xlink:href="#DejaVuSans-57"/>
       <use x="93.001953" xlink:href="#DejaVuSans-6f"/>
       <use x="154.183594" xlink:href="#DejaVuSans-72"/>
       <use x="195.296875" xlink:href="#DejaVuSans-6b"/>
       <use x="249.582031" xlink:href="#DejaVuSans-65"/>
       <use x="311.105469" xlink:href="#DejaVuSans-72"/>
       <use x="345.84375" xlink:href="#DejaVuSans-2d"/>
       <use x="381.927734" xlink:href="#DejaVuSans-34"/>
      </g>
     </g>
    </g>
    <g id="text_15">
     <!-- Node -->
     <g transform="translate(18.885625 213.470781)rotate(-90)scale(0.1 -0.1)">
      <defs>
       <path d="M 628 4666 
L 1478 4666 
L 3547 763 
L 3547 4666 
L 4159 4666 
L 4159 0 
L 3309 0 
L 1241 3903 
L 1241 0 
L 628 0 
L 628 4666 
z
" id="DejaVuSans-4e" transform="scale(0.015625)"/>
      </defs>
      <use xlink:href="#DejaVuSans-4e"/>
      <use x="74.804688" xlink:href="#DejaVuSans-6f"/>
      <use x="135.986328" xlink:href="#DejaVuSans-64"/>
      <use x="199.462891" xlink:href="#DejaVuSans-65"/>
     </g>
    </g>
   </g>
   <g id="patch_3">
    <path d="M 76.52 390.04 
L 76.52 10.8 
" style="fill:none;stroke:#000000;stroke-linecap:square;stroke-linejoin:miter;stroke-width:0.8;"/>
   </g>
   <g id="patch_4">
    <path d="M 608.26 390.04 
L 608.26 10.8 
" style="fill:none;stroke:#000000;stroke-linecap:square;stroke-linejoin:miter;stroke-width:0.8;"/>
   </g>
   <g id="patch_5">
    <path d="M 76.52 390.04 
L 608.26 390.04 
" style="fill:none;stroke:#000000;stroke-linecap:square;stroke-linejoin:miter;stroke-width:0.8;"/>
   </g>
   <g id="patch_6">
    <path d="M 76.52 10.8 
L 608.26 10.8 
" style="fill:none;stroke:#000000;stroke-linecap:square;stroke-linejoin:miter;stroke-width:0.8;"/>
   </g>
   <g id="PathCollection_3">
    <defs>
     <path d="M 0 2.5 
C 0.663008 2.5 1.29895 2.236584 1.767767 1.767767 
C 2.236584 1.29895 2.5 0.663008 2.5 -0 
C 2.5 -0.663008 2.236584 -1.29895 1.767767 -1.767767 
C 1.29895 -2.236584 0.663008 -2.5 0 -2.5 
C -0.663008 -2.5 -1.29895 -2.236584 -1.767767 -1.767767 
C -2.236584 -1.29895 -2.5 -0.663008 -2.5 0 
C -2.5 0.663008 -2.236584 1.29895 -1.767767 1.767767 
C -1.29895 2.236584 -0.663008 2.5 0 2.5 
z
" id="C0_0_216544c854"/>
    </defs>
    <g clip-path="url(#p99b28be57e)">
     <use style="fill:#1f77b4;" x="464.6902" xlink:href="#C0_0_216544c854" y="58.205"/>
    </g>
    <g clip-path="url(#p99b28be57e)">
     <use style="fill:#ff7f0e;" x="473.230918" xlink:href="#C0_0_216544c854" y="58.205"/>
    </g>
    <g clip-path="url(#p99b28be57e)">
     <use style="fill:#ff7f0e;" x="473.535001" xlink:href="#C0_0_216544c854" y="52.230765"/>
    </g>
    <g clip-path="url(#p99b28be57e)">
     <use style="fill:#ff7f0e;" x="473.809135" xlink:href="#C0_0_216544c854" y="64.149723"/>
    </g>
    <g clip-path="url(#p99b28be57e)">
     <use style="fill:#ff7f0e;" x="474.160049" xlink:href="#C0_0_216544c854" y="46.292939"/>
    </g>
    <g clip-path="url(#p99b28be57e)">
     <use style="fill:#ff7f0e;" x="474.335195" xlink:href="#C0_0_216544c854" y="70.101486"/>
    </g>
    <g clip-path="url(#p99b28be57e)">
     <use style="fill:#ff7f0e;" x="474.883158" xlink:href="#C0_0_216544c854" y="40.371325"/>
    </g>
    <g clip-path="url(#p99b28be57e)">
     <use style="fill:#ff7f0e;" x="497.098375" xlink:href="#C0_0_216544c854" y="58.205"/>
    </g>
    <g clip-path="url(#p99b28be57e)">
     <use style="fill:#ff7f0e;" x="497.152558" xlink:href="#C0_0_216544c854" y="52.219877"/>
    </g>
    <g clip-path="url(#p99b28be57e)">
     <use style="fill:#ff7f0e;" x="497.362944" xlink:href="#C0_0_216544c854" y="64.18197"/>
    </g>
    <g clip-path="url(#p99b28be57e)">
     <use style="fill:#ff7f0e;" x="514.074122" xlink:href="#C0_0_216544c854" y="58.205"/>
    </g>
    <g clip-path="url(#p99b28be57e)">
     <use style="fill:#ff7f0e;" x="515.003853" xlink:href="#C0_0_216544c854" y="52.325474"/>
    </g>
    <g clip-path="url(#p99b28be57e)">
     <use style="fill:#ff7f0e;" x="516.071837" xlink:href="#C0_0_216544c854" y="63.684219"/>
    </g>
   </g>
   <g id="PathCollection_4">
    <defs>
     <path d="M 0 2.5 
C 0.663008 2.5 1.29895 2.236584 1.767767 1.767767 
C 2.236584 1.29895 2.5 0.663008 2.5 -0 
C 2.5 -0.663008 2.236584 -1.29895 1.767767 -1.767767 
C 1.29895 -2.236584 0.663008 -2.5 0 -2.5 
C -0.663008 -2.5 -1.29895 -2.236584 -1.767767 -1.767767 
C -2.236584 -1.29895 -2.5 -0.663008 -2.5 0 
C -2.5 0.663008 -2.236584 1.29895 -1.767767 1.767767 
C -1.29895 2.236584 -0.663008 2.5 0 2.5 
z
" id="C1_0_21ff73c246"/>
    </defs>
    <g clip-path="url(#p99b28be57e)">
     <use style="fill:#ff7f0e;" x="468.365216" xlink:href="#C1_0_21ff73c246" y="153.015"/>
    </g>
    <g clip-path="url(#p99b28be57e)">
     <use style="fill:#ff7f0e;" x="469.851548" xlink:href="#C1_0_21ff73c246" y="147.304218"/>
    </g>
    <g clip-path="url(#p99b28be57e)">
     <use style="fill:#ff7f0e;" x="469.924835" xlink:href="#C1_0_21ff73c246" y="158.697287"/>
    </g>
    <g clip-path="url(#p99b28be57e)">
     <use style="fill:#ff7f0e;" x="471.727788" xlink:href="#C1_0_21ff73c246" y="141.762896"/>
    </g>
    <g clip-path="url(#p99b28be57e)">
     <use style="fill:#ff7f0e;" x="473.35117" xlink:href="#C1_0_21ff73c246" y="153.015"/>
    </g>
    <g clip-path="url(#p99b28be57e)">
     <use style="fill:#ff7f0e;" x="474.542433" xlink:href="#C1_0_21ff73c246" y="160.89181"/>
    </g>
    <g clip-path="url(#p99b28be57e)">
     <use style="fill:#1f77b4;" x="498.322755" xlink:href="#C1_0_21ff73c246" y="153.015"/>
    </g>
    <g clip-path="url(#p99b28be57e)">
     <use style="fill:#ff7f0e;" x="508.164838" xlink:href="#C1_0_21ff73c246" y="153.015"/>
    </g>
    <g clip-path="url(#p99b28be57e)">
     <use style="fill:#ff7f0e;" x="510.529501" xlink:href="#C1_0_21ff73c246" y="147.752515"/>
    </g>
    <g clip-path="url(#p99b28be57e)">
     <use style="fill:#ff7f0e;" x="511.37568" xlink:href="#C1_0_21ff73c246" y="157.57924"/>
    </g>
    <g clip-path="url(#p99b28be57e)">
     <use style="fill:#ff7f0e;" x="513.202115" xlink:href="#C1_0_21ff73c246" y="163.144709"/>
    </g>
    <g clip-path="url(#p99b28be57e)">
     <use style="fill:#ff7f0e;" x="517.107054" xlink:href="#C1_0_21ff73c246" y="153.015"/>
    </g>
    <g clip-path="url(#p99b28be57e)">
     <use style="fill:#ff7f0e;" x="520.266607" xlink:href="#C1_0_21ff73c246" y="148.398997"/>
    </g>
   </g>
   <g id="PathCollection_5">
    <defs>
     <path d="M 0 2.5 
C 0.663008 2.5 1.29895 2.236584 1.767767 1.767767 
C 2.236584 1.29895 2.5 0.663008 2.5 -0 
C 2.5 -0.663008 2.236584 -1.29895 1.767767 -1.767767 
C 1.29895 -2.236584 0.663008 -2.5 0 -2.5 
C -0.663008 -2.5 -1.29895 -2.236584 -1.767767 -1.767767 
C -2.236584 -1.29895 -2.5 -0.663008 -2.5 0 
C -2.5 0.663008 -2.236584 1.29895 -1.767767 1.767767 
C -1.29895 2.236584 -0.663008 2.5 0 2.5 
z
" id="C2_0_dfb2a927ed"/>
    </defs>
    <g clip-path="url(#p99b28be57e)">
     <use style="fill:#ff7f0e;" x="458.944728" xlink:href="#C2_0_dfb2a927ed" y="247.825"/>
    </g>
    <g clip-path="url(#p99b28be57e)">
     <use style="fill:#ff7f0e;" x="462.989246" xlink:href="#C2_0_dfb2a927ed" y="244.355784"/>
    </g>
    <g clip-path="url(#p99b28be57e)">
     <use style="fill:#ff7f0e;" x="464.64159" xlink:href="#C2_0_dfb2a927ed" y="249.999828"/>
    </g>
    <g clip-path="url(#p99b28be57e)">
     <use style="fill:#1f77b4;" x="464.6902" xlink:href="#C2_0_dfb2a927ed" y="255.985021"/>
    </g>
    <g clip-path="url(#p99b28be57e)">
     <use style="fill:#ff7f0e;" x="466.988622" xlink:href="#C2_0_dfb2a927ed" y="240.811273"/>
    </g>
    <g clip-path="url(#p99b28be57e)">
     <use style="fill:#ff7f0e;" x="469.027893" xlink:href="#C2_0_dfb2a927ed" y="247.198987"/>
    </g>
    <g clip-path="url(#p99b28be57e)">
     <use style="fill:#ff7f0e;" x="473.90716" xlink:href="#C2_0_dfb2a927ed" y="248.295254"/>
    </g>
    <g clip-path="url(#p99b28be57e)">
     <use style="fill:#ff7f0e;" x="498.946867" xlink:href="#C2_0_dfb2a927ed" y="247.825"/>
    </g>
    <g clip-path="url(#p99b28be57e)">
     <use style="fill:#ff7f0e;" x="501.595883" xlink:href="#C2_0_dfb2a927ed" y="242.763345"/>
    </g>
    <g clip-path="url(#p99b28be57e)">
     <use style="fill:#ff7f0e;" x="505.014952" xlink:href="#C2_0_dfb2a927ed" y="247.825"/>
    </g>
    <g clip-path="url(#p99b28be57e)">
     <use style="fill:#ff7f0e;" x="514.365602" xlink:href="#C2_0_dfb2a927ed" y="247.825"/>
    </g>
    <g clip-path="url(#p99b28be57e)">
     <use style="fill:#ff7f0e;" x="517.555534" xlink:href="#C2_0_dfb2a927ed" y="243.239485"/>
    </g>
    <g clip-path="url(#p99b28be57e)">
     <use style="fill:#ff7f0e;" x="518.339004" xlink:href="#C2_0_dfb2a927ed" y="251.411744"/>
    </g>
   </g>
   <g id="PathCollection_6">
    <defs>
     <path d="M 0 2.5 
C 0.663008 2.5 1.29895 2.236584 1.767767 1.767767 
C 2.236584 1.29895 2.5 0.663008 2.5 -0 
C 2.5 -0.663008 2.236584 -1.29895 1.767767 -1.767767 
C 1.29895 -2.236584 0.663008 -2.5 0 -2.5 
C -0.663008 -2.5 -1.29895 -2.236584 -1.767767 -1.767767 
C -2.236584 -1.29895 -2.5 -0.663008 -2.5 0 
C -2.5 0.663008 -2.236584 1.29895 -1.767767 1.767767 
C -1.29895 2.236584 -0.663008 2.5 0 2.5 
z
" id="C3_0_a7d8f5983e"/>
    </defs>
    <g clip-path="url(#p99b28be57e)">
     <use style="fill:#ff7f0e;" x="464.175887" xlink:href="#C3_0_a7d8f5983e" y="342.635"/>
    </g>
    <g clip-path="url(#p99b28be57e)">
     <use style="fill:#ff7f0e;" x="467.932975" xlink:href="#C3_0_a7d8f5983e" y="338.723896"/>
    </g>
    <g clip-path="url(#p99b28be57e)">
     <use style="fill:#ff7f0e;" x="467.944522" xlink:href="#C3_0_a7d8f5983e" y="346.529913"/>
    </g>
    <g clip-path="url(#p99b28be57e)">
     <use style="fill:#ff7f0e;" x="468.297088" xlink:href="#C3_0_a7d8f5983e" y="352.500272"/>
    </g>
    <g clip-path="url(#p99b28be57e)">
     <use style="fill:#ff7f0e;" x="470.836331" xlink:href="#C3_0_a7d8f5983e" y="333.86936"/>
    </g>
    <g clip-path="url(#p99b28be57e)">
     <use style="fill:#ff7f0e;" x="471.26282" xlink:href="#C3_0_a7d8f5983e" y="357.299657"/>
    </g>
    <g clip-path="url(#p99b28be57e)">
     <use style="fill:#1f77b4;" x="495.929925" xlink:href="#C3_0_a7d8f5983e" y="342.635"/>
    </g>
    <g clip-path="url(#p99b28be57e)">
     <use style="fill:#ff7f0e;" x="497.983528" xlink:href="#C3_0_a7d8f5983e" y="337.185914"/>
    </g>
    <g clip-path="url(#p99b28be57e)">
     <use style="fill:#ff7f0e;" x="499.370179" xlink:href="#C3_0_a7d8f5983e" y="346.9493"/>
    </g>
    <g clip-path="url(#p99b28be57e)">
     <use style="fill:#ff7f0e;" x="499.491892" xlink:href="#C3_0_a7d8f5983e" y="352.932979"/>
    </g>
    <g clip-path="url(#p99b28be57e)">
     <use style="fill:#ff7f0e;" x="513.843908" xlink:href="#C3_0_a7d8f5983e" y="342.635"/>
    </g>
    <g clip-path="url(#p99b28be57e)">
     <use style="fill:#ff7f0e;" x="516.942798" xlink:href="#C3_0_a7d8f5983e" y="337.959571"/>
    </g>
    <g clip-path="url(#p99b28be57e)">
     <use style="fill:#ff7f0e;" x="519.136741" xlink:href="#C3_0_a7d8f5983e" y="343.328519"/>
    </g>
   </g>
   <g id="legend_1">
    <g id="patch_7">
     <path d="M 615.26 216.598125 
L 678.399062 216.598125 
Q 680.399062 216.598125 680.399062 214.598125 
L 680.399062 186.241875 
Q 680.399062 184.241875 678.399062 184.241875 
L 615.26 184.241875 
Q 613.26 184.241875 613.26 186.241875 
L 613.26 214.598125 
Q 613.26 216.598125 615.26 216.598125 
z
" style="fill:#ffffff;opacity:0.8;stroke:#cccccc;stroke-linejoin:miter;"/>
    </g>
    <g id="PathCollection_7">
     <defs>
      <path d="M 0 3.872983 
C 1.027127 3.872983 2.012324 3.464901 2.738613 2.738613 
C 3.464901 2.012324 3.872983 1.027127 3.872983 0 
C 3.872983 -1.027127 3.464901 -2.012324 2.738613 -2.738613 
C 2.012324 -3.464901 1.027127 -3.872983 0 -3.872983 
C -1.027127 -3.872983 -2.012324 -3.464901 -2.738613 -2.738613 
C -3.464901 -2.012324 -3.872983 -1.027127 -3.872983 0 
C -3.872983 1.027127 -3.464901 2.012324 -2.738613 2.738613 
C -2.012324 3.464901 -1.027127 3.872983 0 3.872983 
z
" id="m211ec601b3" style="stroke:#1f77b4;"/>
     </defs>
     <g>
      <use style="fill:#1f77b4;stroke:#1f77b4;" x="627.26" xlink:href="#m211ec601b3" y="193.215313"/>
     </g>
    </g>
    <g id="text_16">
     <!-- model -->
     <g transform="translate(645.26 195.840313)scale(0.1 -0.1)">
      <defs>
       <path d="M 3328 2828 
Q 3544 3216 3844 3400 
Q 4144 3584 4550 3584 
Q 5097 3584 5394 3201 
Q 5691 2819 5691 2113 
L 5691 0 
L 5113 0 
L 5113 2094 
Q 5113 2597 4934 2840 
Q 4756 3084 4391 3084 
Q 3944 3084 3684 2787 
Q 3425 2491 3425 1978 
L 3425 0 
L 2847 0 
L 2847 2094 
Q 2847 2600 2669 2842 
Q 2491 3084 2119 3084 
Q 1678 3084 1418 2786 
Q 1159 2488 1159 1978 
L 1159 0 
L 581 0 
L 581 3500 
L 1159 3500 
L 1159 2956 
Q 1356 3278 1631 3431 
Q 1906 3584 2284 3584 
Q 2666 3584 2933 3390 
Q 3200 3197 3328 2828 
z
" id="DejaVuSans-6d" transform="scale(0.015625)"/>
      </defs>
      <use xlink:href="#DejaVuSans-6d"/>
      <use x="97.412109" xlink:href="#DejaVuSans-6f"/>
      <use x="158.59375" xlink:href="#DejaVuSans-64"/>
      <use x="222.070312" xlink:href="#DejaVuSans-65"/>
      <use x="283.59375" xlink:href="#DejaVuSans-6c"/>
     </g>
    </g>
    <g id="PathCollection_8">
     <defs>
      <path d="M 0 3.872983 
C 1.027127 3.872983 2.012324 3.464901 2.738613 2.738613 
C 3.464901 2.012324 3.872983 1.027127 3.872983 0 
C 3.872983 -1.027127 3.464901 -2.012324 2.738613 -2.738613 
C 2.012324 -3.464901 1.027127 -3.872983 0 -3.872983 
C -1.027127 -3.872983 -2.012324 -3.464901 -2.738613 -2.738613 
C -3.464901 -2.012324 -3.872983 -1.027127 -3.872983 0 
C -3.872983 1.027127 -3.464901 2.012324 -2.738613 2.738613 
C -2.012324 3.464901 -1.027127 3.872983 0 3.872983 
z
" id="m4a3b562028" style="stroke:#ff7f0e;"/>
     </defs>
     <g>
      <use style="fill:#ff7f0e;stroke:#ff7f0e;" x="627.26" xlink:href="#m4a3b562028" y="207.893438"/>
     </g>
    </g>
    <g id="text_17">
     <!-- test -->
     <g transform="translate(645.26 210.518438)scale(0.1 -0.1)">
      <defs>
       <path d="M 1172 4494 
L 1172 3500 
L 2356 3500 
L 2356 3053 
L 1172 3053 
L 1172 1153 
Q 1172 725 1289 603 
Q 1406 481 1766 481 
L 2356 481 
L 2356 0 
L 1766 0 
Q 1100 0 847 248 
Q 594 497 594 1153 
L 594 3053 
L 172 3053 
L 172 3500 
L 594 3500 
L 594 4494 
L 1172 4494 
z
" id="DejaVuSans-74" transform="scale(0.015625)"/>
      </defs>
      <use xlink:href="#DejaVuSans-74"/>
      <use x="39.208984" xlink:href="#DejaVuSans-65"/>
      <use x="100.732422" xlink:href="#DejaVuSans-73"/>
      <use x="152.832031" xlink:href="#DejaVuSans-74"/>
     </g>
    </g>
   </g>
  </g>
 </g>
 <defs>
  <clipPath id="p99b28be57e">
   <rect height="379.24" width="531.74" x="76.52" y="10.8"/>
  </clipPath>
 </defs>
</svg>
